<svg id="visual" viewBox="0 0 900 600" width="900" height="600" xmlns="http://www.w3.org/2000/svg" xmlns:xlink="http://www.w3.org/1999/xlink" version="1.1"><rect x="0" y="0" width="900" height="600" fill="#001220"></rect><defs><linearGradient id="grad1_0" x1="33.3%" y1="0%" x2="100%" y2="100%"><stop offset="20%" stop-color="#fbae3c" stop-opacity="1"></stop><stop offset="80%" stop-color="#fbae3c" stop-opacity="1"></stop></linearGradient></defs><defs><linearGradient id="grad1_1" x1="33.3%" y1="0%" x2="100%" y2="100%"><stop offset="20%" stop-color="#fbae3c" stop-opacity="1"></stop><stop offset="80%" stop-color="#96446e" stop-opacity="1"></stop></linearGradient></defs><defs><linearGradient id="grad1_2" x1="33.3%" y1="0%" x2="100%" y2="100%"><stop offset="20%" stop-color="#001220" stop-opacity="1"></stop><stop offset="80%" stop-color="#96446e" stop-opacity="1"></stop></linearGradient></defs><defs><linearGradient id="grad2_0" x1="0%" y1="0%" x2="66.7%" y2="100%"><stop offset="20%" stop-color="#fbae3c" stop-opacity="1"></stop><stop offset="80%" stop-color="#fbae3c" stop-opacity="1"></stop></linearGradient></defs><defs><linearGradient id="grad2_1" x1="0%" y1="0%" x2="66.7%" y2="100%"><stop offset="20%" stop-color="#96446e" stop-opacity="1"></stop><stop offset="80%" stop-color="#fbae3c" stop-opacity="1"></stop></linearGradient></defs><defs><linearGradient id="grad2_2" x1="0%" y1="0%" x2="66.7%" y2="100%"><stop offset="20%" stop-color="#96446e" stop-opacity="1"></stop><stop offset="80%" stop-color="#001220" stop-opacity="1"></stop></linearGradient></defs><g transform="translate(900, 0)"><path d="M0 324.5C-45.8 324 -91.5 323.4 -124.2 299.8C-156.8 276.2 -176.4 229.5 -193.7 193.7C-211.1 158 -226.2 133 -247.6 102.6C-269 72.1 -296.8 36 -324.5 0L0 0Z" fill="#3d3056"></path><path d="M0 216.3C-30.5 216 -61 215.6 -82.8 199.9C-104.6 184.1 -117.6 153 -129.2 129.2C-140.7 105.3 -150.8 88.7 -165.1 68.4C-179.3 48.1 -197.8 24 -216.3 0L0 0Z" fill="#e1685e"></path><path d="M0 108.2C-15.3 108 -30.5 107.8 -41.4 99.9C-52.3 92.1 -58.8 76.5 -64.6 64.6C-70.4 52.7 -75.4 44.3 -82.5 34.2C-89.7 24 -98.9 12 -108.2 0L0 0Z" fill="#fbae3c"></path></g><g transform="translate(0, 600)"><path d="M0 -324.5C47.8 -321.6 95.6 -318.6 119.8 -289.2C144 -259.7 144.6 -203.8 176.1 -176.1C207.6 -148.3 269.9 -148.8 299.8 -124.2C329.7 -99.5 327.1 -49.8 324.5 0L0 0Z" fill="#3d3056"></path><path d="M0 -216.3C31.9 -214.4 63.7 -212.4 79.9 -192.8C96 -173.2 96.4 -135.9 117.4 -117.4C138.4 -98.9 179.9 -99.2 199.9 -82.8C219.8 -66.4 218.1 -33.2 216.3 0L0 0Z" fill="#e1685e"></path><path d="M0 -108.2C15.9 -107.2 31.9 -106.2 39.9 -96.4C48 -86.6 48.2 -67.9 58.7 -58.7C69.2 -49.4 90 -49.6 99.9 -41.4C109.9 -33.2 109 -16.6 108.2 0L0 0Z" fill="#fbae3c"></path></g></svg>