<svg id="visual" viewBox="0 0 900 600" width="900" height="600" xmlns="http://www.w3.org/2000/svg" xmlns:xlink="http://www.w3.org/1999/xlink" version="1.1"><path d="M0 193L13.7 192C27.3 191 54.7 189 82 187C109.3 185 136.7 183 163.8 186C191 189 218 197 245.2 189C272.3 181 299.7 157 327 147C354.3 137 381.7 141 409 152C436.3 163 463.7 181 491 179C518.3 177 545.7 155 573 149C600.3 143 627.7 153 654.8 153C682 153 709 143 736.2 141C763.3 139 790.7 145 818 153C845.3 161 872.7 171 886.3 176L900 181L900 0L886.3 0C872.7 0 845.3 0 818 0C790.7 0 763.3 0 736.2 0C709 0 682 0 654.8 0C627.7 0 600.3 0 573 0C545.7 0 518.3 0 491 0C463.7 0 436.3 0 409 0C381.7 0 354.3 0 327 0C299.7 0 272.3 0 245.2 0C218 0 191 0 163.8 0C136.7 0 109.3 0 82 0C54.7 0 27.3 0 13.7 0L0 0Z" fill="#6198ff"></path><path d="M0 271L13.7 271C27.3 271 54.7 271 82 267C109.3 263 136.7 255 163.8 253C191 251 218 255 245.2 251C272.3 247 299.7 235 327 229C354.3 223 381.7 223 409 233C436.3 243 463.7 263 491 260C518.3 257 545.7 231 573 219C600.3 207 627.7 209 654.8 205C682 201 709 191 736.2 192C763.3 193 790.7 205 818 216C845.3 227 872.7 237 886.3 242L900 247L900 179L886.3 174C872.7 169 845.3 159 818 151C790.7 143 763.3 137 736.2 139C709 141 682 151 654.8 151C627.7 151 600.3 141 573 147C545.7 153 518.3 175 491 177C463.7 179 436.3 161 409 150C381.7 139 354.3 135 327 145C299.7 155 272.3 179 245.2 187C218 195 191 187 163.8 184C136.7 181 109.3 183 82 185C54.7 187 27.3 189 13.7 190L0 191Z" fill="#3c80ff"></path><path d="M0 361L13.7 356C27.3 351 54.7 341 82 334C109.3 327 136.7 323 163.8 323C191 323 218 327 245.2 324C272.3 321 299.7 311 327 307C354.3 303 381.7 305 409 319C436.3 333 463.7 359 491 358C518.3 357 545.7 329 573 311C600.3 293 627.7 285 654.8 283C682 281 709 285 736.2 288C763.3 291 790.7 293 818 302C845.3 311 872.7 327 886.3 335L900 343L900 245L886.3 240C872.7 235 845.3 225 818 214C790.7 203 763.3 191 736.2 190C709 189 682 199 654.8 203C627.7 207 600.3 205 573 217C545.7 229 518.3 255 491 258C463.7 261 436.3 241 409 231C381.7 221 354.3 221 327 227C299.7 233 272.3 245 245.2 249C218 253 191 249 163.8 251C136.7 253 109.3 261 82 265C54.7 269 27.3 269 13.7 269L0 269Z" fill="#0066ff"></path><path d="M0 487L13.7 484C27.3 481 54.7 475 82 476C109.3 477 136.7 485 163.8 492C191 499 218 505 245.2 508C272.3 511 299.7 511 327 507C354.3 503 381.7 495 409 498C436.3 501 463.7 515 491 518C518.3 521 545.7 513 573 500C600.3 487 627.7 469 654.8 462C682 455 709 459 736.2 464C763.3 469 790.7 475 818 476C845.3 477 872.7 473 886.3 471L900 469L900 341L886.3 333C872.7 325 845.3 309 818 300C790.7 291 763.3 289 736.2 286C709 283 682 279 654.8 281C627.7 283 600.3 291 573 309C545.7 327 518.3 355 491 356C463.7 357 436.3 331 409 317C381.7 303 354.3 301 327 305C299.7 309 272.3 319 245.2 322C218 325 191 321 163.8 321C136.7 321 109.3 325 82 332C54.7 339 27.3 349 13.7 354L0 359Z" fill="#0059dd"></path><path d="M0 601L13.7 601C27.3 601 54.7 601 82 601C109.3 601 136.7 601 163.8 601C191 601 218 601 245.2 601C272.3 601 299.7 601 327 601C354.3 601 381.7 601 409 601C436.3 601 463.7 601 491 601C518.3 601 545.7 601 573 601C600.3 601 627.7 601 654.8 601C682 601 709 601 736.2 601C763.3 601 790.7 601 818 601C845.3 601 872.7 601 886.3 601L900 601L900 467L886.3 469C872.7 471 845.3 475 818 474C790.7 473 763.3 467 736.2 462C709 457 682 453 654.8 460C627.7 467 600.3 485 573 498C545.7 511 518.3 519 491 516C463.7 513 436.3 499 409 496C381.7 493 354.3 501 327 505C299.7 509 272.3 509 245.2 506C218 503 191 497 163.8 490C136.7 483 109.3 475 82 474C54.7 473 27.3 479 13.7 482L0 485Z" fill="#004cbb"></path></svg>